#!OML:ASF H:\Terrain\Patient Classification 1\PLAYGROUND\JustinFriday\JustinFriday.ASF
:FULLY-SPECIFIED
:DEGREES
2348
root 10.7391 17.5789 9.01696 363.688 -64.5814 -4.3726
lowerback 17.4051 -1.86213 0.788753
upperback 5.13795 -2.36474 3.27525
thorax -4.12889 -1.27641 3.51756
lowerneck 8.98503 -4.95346 -8.02129
upperneck -13.1766 -7.28415 4.88701
head -4.95272 -3.55908 3.30001
rclavicle 3.10104e-014 -6.36111e-015
rhumerus -72.5708 -53.7389 -12.6881
rradius 18.8654
rwrist 8.37883
rhand -5.93354 -23.7695
rfingers 7.12502
rthumb 19.8962 -412.771
lclavicle 3.10104e-014 -6.36111e-015
lhumerus -36.9083 -7.36756 77.1981
lradius 47.1759
lwrist -2.55576
lhand -24.251 -10.5613
lfingers 7.12502
lthumb 2.23491 19.4068
rfemur -16.1323 22.2141 10.6538
rtibia 35.1838
rfoot -21.7226 11.6689
rtoes -6.78096
lfemur -11.4576 5.87226 -11.2984
ltibia 33.278
lfoot -18.4461 1.86641
ltoes -3.73614
2349
root 10.744 17.6025 9.07438 363.882 -64.3778 -4.59159
lowerback 17.3311 -1.94217 0.942858
upperback 5.09795 -2.43916 3.36452
thorax -4.13029 -1.31312 3.53811
lowerneck 8.66018 -5.02838 -8.22073
upperneck -13.0567 -7.35891 5.10415
head -4.83904 -3.60298 3.38667
rclavicle -3.45885e-014 -5.56597e-015
rhumerus -75.7666 -54.472 -10.0507
rradius 19.0542
rwrist 10.7373
rhand -5.66562 -23.4872
rfingers 7.12502
rthumb 20.1538 -412.462
lclavicle -3.45885e-014 -5.56597e-015
lhumerus -37.4284 -7.3194 77.3382
lradius 46.793
lwrist -2.32123
lhand -24.1835 -10.3332
lfingers 7.12502
lthumb 2.30012 19.6341
rfemur -15.9027 21.8055 10.6688
rtibia 34.9972
rfoot -21.3271 11.7753
rtoes -6.80536
lfemur -11.2697 5.77907 -11.4049
ltibia 32.978
lfoot -18.3732 1.94009
ltoes -4.19972
2350
root 10.7448 17.6081 9.12987 364.553 -64.2347 -5.41532
lowerback 17.3168 -2.00154 1.28387
upperback 5.05048 -2.45146 3.52041
thorax -4.17889 -1.32039 3.51447
lowerneck 8.30966 -5.04916 -8.36685
upperneck -12.6678 -7.35364 5.26006
head -4.64843 -3.60832 3.43237
rclavicle 1.35174e-014 -3.33958e-014
rhumerus -75.5676 -54.0261 -11.3017
rradius 18.8714
rwrist 10.7626
rhand -5.2188 -23.4371
rfingers 7.12502
rthumb 20.5832 -412.366
lclavicle 1.35174e-014 -3.33958e-014
lhumerus -38.0533 -6.9609 77.461
lradius 46.3711
lwrist -2.40365
lhand -24.382 -10.271
lfingers 7.12502
lthumb 2.10842 19.6983
rfemur -15.7687 21.3989 10.9867
rtibia 35.0406
rfoot -20.9315 11.8565
rtoes -7.17941
lfemur -10.9445 5.54388 -11.1768
ltibia 32.649
lfoot -18.3575 1.96516
ltoes -4.2541
2351
root 10.7499 17.6054 9.16981 364.144 -63.988 -4.97201
lowerback 17.398 -1.99023 0.975122
upperback 4.93406 -2.47505 3.55785
thorax -4.33042 -1.32701 3.74282
lowerneck 7.92715 -5.07521 -8.39056
upperneck -12.2107 -7.34858 5.31952
head -4.44082 -3.6131 3.42596
rclavicle 6.95746e-014 2.38542e-015
rhumerus -74.4606 -53.3427 -13.5908
rradius 18.5046
rwrist 9.89961
rhand -4.62758 -23.4543
rfingers 7.12502
rthumb 21.1512 -412.321
lclavicle 6.95746e-014 2.38542e-015
lhumerus -38.6067 -6.64036 77.5579
lradius 45.961
lwrist -2.29562
lhand -24.5414 -10.3095
lfingers 7.12502
lthumb 1.95448 19.6613
rfemur -15.8628 20.7793 10.7057
rtibia 35.3298
rfoot -20.4148 11.9976
rtoes -7.64935
lfemur -10.7786 5.29565 -11.4917
ltibia 32.2832
lfoot -18.2284 1.67205
ltoes -3.57239
2352
root 10.7561 17.6157 9.21816 363.216 -63.7774 -3.95365
lowerback 17.3887 -1.99469 0.576044
upperback 4.86142 -2.54591 3.45529
thorax -4.38708 -1.35612 3.87644
lowerneck 7.76934 -5.10734 -8.28172
upperneck -12.1761 -7.3659 5.31799
head -4.40648 -3.62619 3.40236
rclavicle 3.27995e-014 7.95139e-015
rhumerus -74.3377 -53.172 -14.6204
rradius 18.0316
rwrist 9.58555
rhand -3.94014 -23.5142
rfingers 7.12502
rthumb 21.8114 -412.305
lclavicle 3.27995e-014 7.95139e-015
lhumerus -39.0251 -6.15536 77.4719
lradius 45.5025
lwrist -2.16371
lhand -24.6623 -10.4966
lfingers 7.12502
lthumb 1.83772 19.4752
rfemur -16.0648 20.1695 10.1175
rtibia 35.8479
rfoot -19.7877 12.2299
rtoes -6.65099
lfemur -10.5845 4.8187 -12.1877
ltibia 31.8901
lfoot -18.0812 1.55415
ltoes -1.63294
2353
root 10.7602 17.6291 9.26975 362.801 -63.6687 -3.5802
lowerback 17.3761 -1.96128 0.494472
upperback 4.8165 -2.51062 3.50457
thorax -4.42459 -1.33702 3.96926
lowerneck 7.55039 -5.21381 -8.41553
upperneck -12.0492 -7.51305 5.28562
head -4.31753 -3.69235 3.40763
rclavicle 3.10104e-014 0
rhumerus -73.618 -52.7262 -16.2387
rradius 17.7983
rwrist 8.54619
rhand -3.37552 -23.2445
rfingers 7.12502
rthumb 22.3535 -411.971
lclavicle 3.10104e-014 0
lhumerus -39.4167 -5.80339 77.6021
lradius 45.0319
lwrist -1.96554
lhand -24.9391 -10.5089
lfingers 7.12502
lthumb 1.5704 19.465
rfemur -16.2439 19.6189 9.88621
rtibia 36.4909
rfoot -19.0471 12.2323
rtoes -4.98387
lfemur -10.221 4.51087 -12.5778
ltibia 31.4382
lfoot -17.8314 1.69678
ltoes -0.589966
